<?xml version="1.0" standalone="no"?>
<!DOCTYPE svg PUBLIC "-//W3C//DTD SVG 20010904//EN"
 "http://www.w3.org/TR/2001/REC-SVG-20010904/DTD/svg10.dtd">
<svg version="1.0" xmlns="http://www.w3.org/2000/svg"
 width="640.000000pt" height="640.000000pt" viewBox="0 0 640.000000 640.000000"
 preserveAspectRatio="xMidYMid meet">

<g transform="translate(0.000000,640.000000) scale(0.100000,-0.100000)"
fill="#ffff00" stroke="none">
<path d="M600 6390 l604 -5 127 -215 c397 -677 522 -893 522 -904 0 -6 -93
-168 -205 -361 -113 -192 -354 -606 -537 -920 -183 -313 -343 -587 -357 -607
l-24 -38 -365 0 -365 0 0 -40 0 -40 340 0 339 0 26 -43 c14 -24 25 -47 25 -50
0 -4 -164 -7 -365 -7 l-365 0 0 -45 0 -45 396 -2 397 -3 545 -934 546 -934
-25 -46 c-14 -25 -166 -288 -339 -583 l-314 -538 -603 0 c-531 0 -603 -2 -603
-15 0 -13 76 -15 646 -13 l646 3 102 175 c57 96 199 339 316 540 280 480 252
440 300 440 22 0 40 -4 40 -9 0 -5 -35 -69 -78 -142 -404 -691 -582 -999 -582
-1003 0 -3 21 -6 48 -6 l47 0 337 578 336 577 1037 0 1036 0 337 -577 337
-578 49 0 c34 0 47 4 43 12 -2 7 -151 264 -331 571 -179 307 -326 562 -326
568 0 5 4 9 10 9 5 0 19 19 31 42 20 40 22 41 36 22 7 -10 172 -290 366 -621
l351 -603 633 0 633 0 0 25 0 25 -597 0 -598 0 -80 138 c-43 75 -209 359 -368
631 -159 271 -291 499 -293 505 -3 7 24 61 59 122 35 60 230 393 432 739 203
347 404 692 448 768 l79 137 459 0 459 0 0 45 0 45 -430 0 c-236 0 -430 2
-430 5 0 2 9 19 19 36 11 17 17 38 14 45 -4 12 63 14 411 14 l416 0 0 45 0 45
-446 2 -446 3 -137 235 c-76 129 -309 528 -519 887 l-381 652 364 623 364 623
-41 3 c-22 2 -45 1 -52 -1 -6 -3 -162 -263 -346 -580 -184 -316 -338 -573
-341 -571 -4 2 -16 19 -27 38 l-20 34 280 478 c154 264 295 507 315 542 l35
63 -51 -3 -51 -3 -304 -520 -304 -520 -1097 0 -1098 0 -303 520 -304 520 -50
3 c-27 2 -50 1 -50 -1 0 -4 570 -983 596 -1025 15 -23 15 -23 -31 -20 l-47 3
-303 520 -303 520 -654 0 -653 0 605 -5z m4243 -2164 l567 -973 -466 -799
c-257 -440 -513 -878 -570 -974 l-102 -175 -1140 -3 -1140 -2 -249 427 c-138
236 -393 673 -568 973 -175 299 -318 549 -318 555 0 8 1070 1847 1119 1923
l14 22 1143 0 1142 -1 568 -973z"/>
<path d="M1903 4882 c-72 -125 -317 -544 -543 -930 l-411 -704 428 -731 c235
-403 480 -822 544 -932 l116 -200 1094 0 1093 0 131 225 c379 647 934 1598
944 1618 11 20 -30 94 -445 805 -252 430 -496 848 -543 930 l-86 147 -1095 0
-1095 -1 -132 -227z m2397 -14 c63 -106 144 -245 180 -308 37 -63 137 -234
222 -380 480 -819 539 -924 535 -939 -4 -15 -147 -261 -874 -1506 l-169 -290
-1063 0 -1063 0 -137 235 c-937 1601 -914 1561 -902 1587 10 22 320 554 688
1183 63 107 169 288 235 403 l121 207 1057 0 1057 0 113 -192z"/>
<path d="M3650 4635 c-6 -7 -29 -74 -50 -148 -43 -149 -88 -271 -123 -331 -28
-49 -49 -59 -42 -19 8 52 15 408 8 446 -6 40 -26 58 -45 39 -6 -6 -9 -100 -9
-258 2 -324 -18 -467 -74 -531 l-24 -28 -20 20 c-35 34 -53 132 -47 253 2 59
8 128 11 154 13 91 -38 178 -104 178 -49 0 -84 -36 -113 -116 -17 -47 -22 -87
-24 -194 -4 -161 -20 -252 -42 -248 -24 5 -31 47 -37 232 -7 171 -24 296 -46
322 -13 16 -40 14 -62 -5 -30 -24 -74 -211 -78 -326 l-2 -40 -8 45 c-4 25 -8
159 -8 298 -1 220 -3 253 -17 259 -35 13 -39 -11 -39 -260 0 -133 3 -289 5
-347 6 -124 -16 -220 -49 -220 -16 0 -22 13 -34 68 -22 99 -29 189 -36 462
l-6 245 -25 0 -25 0 -3 -150 c-2 -82 2 -213 9 -290 7 -77 12 -153 11 -168 -2
-38 -41 -115 -71 -138 -55 -44 -96 -9 -108 92 -6 47 -4 52 29 87 51 53 80 117
86 188 5 71 -8 104 -42 104 -54 0 -113 -120 -125 -254 -6 -69 -10 -81 -35
-102 -53 -46 -61 -36 -61 74 0 105 -16 179 -46 211 -66 71 -134 -39 -162 -258
-11 -89 -12 -93 -20 -56 -4 22 -10 135 -12 250 -5 193 -6 210 -23 207 -9 -2
-20 -9 -24 -15 -12 -20 -19 -192 -10 -287 5 -52 8 -96 8 -97 -1 -1 -13 -4 -27
-8 l-26 -6 -6 113 c-4 62 -7 143 -7 181 0 37 -4 67 -8 67 -24 0 -41 -33 -56
-115 -9 -49 -31 -139 -48 -199 l-31 -109 -54 -23 c-30 -13 -51 -29 -48 -34 4
-6 22 -2 46 11 l41 20 -7 -23 c-12 -37 -32 -72 -70 -123 -20 -26 -34 -50 -31
-53 13 -12 60 47 99 126 34 69 47 86 75 98 54 22 58 19 71 -53 22 -123 81
-246 106 -221 4 3 -1 20 -9 37 -17 33 -40 122 -54 214 -9 57 -9 58 18 72 l26
14 17 -88 c22 -114 50 -196 68 -196 11 0 13 20 11 105 -7 203 39 400 93 400
23 0 38 -56 43 -162 4 -106 4 -108 -19 -117 -37 -14 -69 -54 -75 -93 -10 -61
20 -91 71 -71 19 7 65 97 65 126 0 10 12 22 28 27 15 6 39 17 54 25 33 19 38
19 38 -2 0 -36 43 -105 75 -120 31 -15 36 -15 67 4 22 13 43 39 64 81 l32 63
6 -36 c9 -49 40 -117 59 -133 9 -8 25 -11 36 -7 20 6 51 70 51 105 0 10 5 22
10 25 6 3 10 -4 10 -17 0 -42 21 -98 35 -98 12 0 15 22 15 123 1 202 40 427
75 427 19 0 23 -16 40 -200 24 -260 43 -330 90 -330 29 0 49 33 60 97 6 39 9
42 27 32 30 -16 65 13 98 82 l28 60 7 -43 c14 -92 49 -201 72 -229 48 -57 97
-27 130 80 l18 56 5 -89 c5 -92 22 -124 34 -65 3 17 6 79 6 138 l1 106 22 -27
c12 -14 42 -64 67 -109 48 -89 125 -179 153 -179 18 0 57 34 57 50 0 15 -17
12 -24 -5 -9 -25 -44 -17 -69 18 -23 30 -157 296 -157 311 0 4 14 28 31 52 43
63 111 210 153 332 39 111 43 141 24 160 -16 16 -23 15 -38 -3z m-497 -322
c20 -24 22 -38 14 -99 -11 -76 -78 -238 -103 -248 -26 -10 -39 26 -39 103 1
94 26 180 66 226 36 40 40 41 62 18z m-745 -113 c6 -41 -51 -160 -78 -160 -11
0 15 112 37 157 17 37 36 39 41 3z m-634 -153 l7 -98 -36 -15 c-21 -8 -39 -14
-40 -12 -2 2 4 28 14 59 10 30 24 81 31 112 7 31 14 56 15 55 1 -2 5 -47 9
-101z m333 -192 c-7 -43 -29 -90 -42 -89 -34 4 -30 70 7 104 31 29 41 25 35
-15z"/>
<path d="M4447 4326 c-14 -37 -29 -272 -23 -372 5 -87 3 -121 -10 -156 -29
-87 -75 -101 -109 -33 -16 33 -20 59 -19 147 0 73 4 111 13 122 9 11 12 33 9
66 -11 112 -118 190 -179 129 -33 -33 -49 -84 -75 -234 -26 -154 -40 -211 -54
-220 -26 -16 -23 159 6 359 18 130 18 152 -3 160 -20 8 -43 -18 -43 -48 0 -17
-4 -15 -20 11 -24 40 -46 52 -89 49 -68 -5 -106 -92 -106 -241 0 -70 4 -97 18
-118 33 -50 79 -28 130 61 l32 57 6 -115 c3 -63 11 -134 18 -158 25 -88 69
-59 97 65 17 76 17 77 28 43 24 -71 80 -62 125 20 l25 45 12 -87 c21 -144 71
-211 132 -177 15 8 37 32 49 54 l21 39 8 -40 c14 -79 44 -81 44 -3 0 117 43
290 76 303 22 8 30 -23 43 -164 6 -69 16 -142 21 -163 12 -40 50 -73 75 -63
24 9 46 73 43 119 -4 41 -4 41 -11 12 -24 -93 -29 -105 -43 -105 -24 0 -34 45
-34 159 0 105 -18 210 -42 238 -6 8 -23 13 -37 11 -33 -4 -59 -50 -82 -142
l-18 -71 0 140 c0 77 4 171 9 208 7 46 7 74 0 88 -12 22 -36 25 -43 5z m-557
-111 c6 -8 20 -30 29 -49 l18 -35 -43 -75 c-71 -121 -114 -134 -114 -32 0 58
23 137 52 179 22 30 40 34 58 12z m346 -77 c14 -27 13 -34 -5 -91 -33 -98 -77
-167 -106 -167 -20 0 -25 6 -31 36 -19 103 57 278 112 257 8 -3 22 -19 30 -35z"/>
<path d="M3327 3443 c-28 -27 29 -103 78 -103 30 0 40 -18 65 -122 28 -115 28
-115 -24 -122 -103 -16 -209 -93 -260 -190 -14 -27 -26 -47 -26 -45 0 3 9 47
21 99 24 111 21 167 -15 238 -72 142 -241 188 -333 90 -27 -28 -53 -89 -53
-122 l0 -25 -56 34 c-78 47 -116 58 -184 53 -116 -8 -200 -92 -200 -198 0
-155 120 -270 363 -345 l88 -28 -54 -38 c-58 -41 -101 -96 -123 -156 -18 -52
-17 -74 6 -137 19 -51 20 -57 5 -91 -15 -37 -20 -85 -9 -85 3 0 20 10 37 22
42 30 93 28 187 -8 71 -27 84 -28 225 -28 133 1 160 4 238 28 161 48 271 117
307 192 15 30 20 55 16 74 -5 26 -2 30 22 35 125 26 197 69 247 149 38 62 47
166 20 245 -18 56 -93 146 -150 181 l-33 21 23 58 c12 32 38 87 56 122 33 63
35 64 71 61 31 -3 43 2 68 26 34 34 37 53 14 73 -13 11 -23 10 -57 -2 -37 -12
-47 -23 -89 -99 -27 -47 -60 -116 -75 -155 -15 -38 -27 -71 -28 -72 0 -1 -21
4 -45 11 -25 7 -70 16 -101 20 l-56 7 -12 67 c-18 96 -61 223 -84 250 -20 21
-75 31 -90 15z m-269 -160 c59 -36 103 -106 110 -172 8 -92 -58 -362 -92 -373
-5 -2 -30 33 -56 77 -62 108 -125 200 -175 257 -41 46 -42 47 -34 102 18 133
128 182 247 109z m-377 -108 c103 -53 244 -226 344 -425 35 -70 36 -74 19 -87
-23 -16 -38 -16 -149 2 -104 17 -268 66 -338 102 -56 28 -128 91 -156 137 -11
17 -25 53 -31 79 -38 170 139 279 311 192z m821 -122 c2 -16 8 -27 13 -25 6 2
9 14 7 27 -3 24 -1 25 45 24 74 -1 128 -20 128 -46 1 -29 13 -40 21 -19 11 29
35 17 104 -52 56 -57 69 -77 80 -121 26 -111 -9 -228 -89 -288 -170 -130 -528
-53 -612 132 -21 46 -24 133 -6 182 32 86 112 161 210 194 76 27 95 25 99 -8z
m-346 -263 c-1 -55 -3 -59 -24 -57 -12 1 -21 4 -19 7 1 3 11 29 22 58 11 28
20 52 21 52 1 0 1 -27 0 -60z m35 -137 c57 -96 172 -162 324 -184 58 -9 74
-15 78 -30 3 -10 2 -21 -3 -24 -15 -9 -158 38 -258 86 -80 38 -119 65 -177
120 -41 40 -75 75 -75 80 0 5 17 9 39 9 36 0 40 -3 72 -57z m-261 -19 c49 -6
59 -12 98 -56 93 -103 276 -191 475 -229 31 -6 57 -15 57 -20 0 -5 -18 -22
-40 -38 -36 -26 -44 -28 -81 -20 -60 14 -223 76 -300 115 -83 41 -215 140
-268 201 -46 52 -51 68 -18 60 12 -3 47 -9 77 -13z m-176 -83 c8 -15 50 -61
92 -100 95 -88 257 -173 416 -217 l103 -28 -59 -18 c-55 -17 -64 -17 -119 -3
-110 28 -272 104 -354 165 -78 58 -163 141 -163 159 0 13 50 71 61 71 5 0 15
-13 23 -29z m39 -304 c34 -21 89 -48 122 -60 73 -26 51 -34 -36 -12 -109 29
-191 82 -225 147 -24 46 -16 47 31 4 25 -22 74 -58 108 -79z"/>
</g>
</svg>
